PathFileType	4	(X/Y/Z)	D:\TRACE\spot_10-12-23\spot_arm_motion_2_5-platform.trc
DataRate	CameraRate	NumFrames	NumMarkers	Units	OrigDataRate	OrigDataStartFrame	OrigNumFrames
100.00	100.00	      60	5	mm	100.00	6126	      7000
Frame#	Time	Left_Front			Right_Front			Left_Aft			Right_Aft			Post			
		X1	Y1	Z1	X2	Y2	Z2	X3	Y3	Z3	X4	Y4	Z4	X5	Y5	Z5	

6126	61.250	-797.96985	-47.51426	-652.29089	774.45032	-42.21115	-645.26160	-715.42706	40.98090	482.51697	701.86084	52.19184	568.14886	-14.78165	663.11664	-1030.32043	
6127	61.260	-796.91449	-46.33691	-652.25562	775.23889	-41.50422	-645.00354	-714.33405	40.50032	482.67673	703.03412	51.51789	568.36383	-13.98695	664.18500	-1029.31775	
6128	61.270	-795.93494	-45.71350	-652.03815	776.46002	-40.40602	-645.34088	-713.36090	39.84256	482.94858	704.15973	50.90966	568.62665	-12.67278	665.30133	-1028.31384	
6129	61.280	-794.89697	-44.97686	-651.79468	777.25000	-39.81268	-644.85785	-712.40210	39.41262	483.00934	705.28955	50.33792	569.01971	-12.00701	667.05554	-1027.26794	
6130	61.290	-793.66895	-44.05876	-651.89270	778.70563	-38.61132	-644.92450	-711.01105	38.54172	483.27808	706.12146	49.63369	569.26392	-10.51482	668.18652	-1025.85181	
6131	61.300	-792.60364	-43.30615	-651.72461	779.37561	-37.99725	-644.51691	-710.09637	38.01785	483.56198	707.26245	48.96544	569.51373	-9.95283	669.74298	-1024.88208	
6132	61.310	-791.57343	-42.15602	-651.51202	780.89484	-36.79110	-644.42627	-708.93018	37.41557	483.80182	708.35938	48.13431	569.86499	-8.68590	671.24976	-1023.50775	
6133	61.320	-790.62866	-41.00634	-651.35852	781.54504	-35.79633	-644.19025	-707.89307	36.75878	484.20047	709.28784	47.28154	570.02490	-7.58882	672.56915	-1022.35425	
6134	61.330	-789.59894	-40.16267	-650.95825	782.64520	-34.97501	-644.35693	-706.80695	36.15319	484.27783	710.48029	46.51964	570.18011	-6.71857	674.17950	-1021.09845	
6135	61.340	-788.57709	-38.71581	-650.82465	783.90375	-33.77290	-643.81219	-705.77490	35.49949	484.67368	711.61206	45.86202	570.59534	-6.03998	676.14044	-1020.04120	
6136	61.350	-787.49817	-37.66349	-650.58600	785.16888	-32.86305	-643.70795	-704.56152	34.64074	485.19833	712.63477	44.97770	570.92950	-4.36805	677.69812	-1018.31958	
6137	61.360	-786.29956	-36.83385	-650.52228	786.12708	-31.75824	-643.39899	-703.54138	33.69775	485.31000	713.79816	44.09438	571.35059	-3.03549	679.19629	-1016.81348	
6138	61.370	-785.19263	-35.57271	-650.27875	787.28912	-30.57961	-643.48547	-702.54242	33.17806	485.72653	714.81134	43.18358	571.56641	-2.36564	680.86816	-1015.49310	
6139	61.380	-784.20923	-34.39931	-649.94635	788.18835	-29.31356	-643.37390	-701.45532	32.52430	485.93964	715.85883	42.20238	571.90009	-0.98606	682.84949	-1014.07092	
6140	61.390	-783.26147	-33.08383	-649.83344	789.21600	-28.25939	-643.02966	-700.34845	31.59466	486.33084	716.98615	41.29371	572.07672	0.00658	684.72443	-1012.25226	
6141	61.400	-782.02460	-32.18169	-649.60242	790.89722	-26.96012	-642.58160	-699.19989	30.99302	486.67255	718.26465	40.35687	572.49725	1.18001	686.62122	-1010.91217	
6142	61.410	-780.90247	-30.63760	-649.50079	791.57843	-25.85326	-642.51044	-698.03827	30.11858	486.92944	719.43445	39.40071	572.88440	2.22639	688.59027	-1009.23651	
6143	61.420	-779.77484	-29.54480	-649.10669	792.79767	-24.39614	-642.31995	-696.97894	29.21120	487.33249	720.42480	38.51248	573.24127	3.20333	690.29749	-1007.55560	
6144	61.430	-778.71442	-28.17494	-648.96082	793.74963	-23.33355	-642.28363	-695.69110	28.40596	487.45184	721.57330	37.45868	573.62329	4.29165	692.13745	-1006.14484	
6145	61.440	-777.65771	-26.72848	-648.74438	794.98755	-21.95726	-641.82300	-694.63104	27.61101	488.15356	722.44312	36.42414	574.10345	5.61740	694.24438	-1004.16876	
6146	61.450	-776.27411	-25.59913	-648.54492	796.29993	-20.52479	-641.41321	-693.40363	26.75168	488.24460	723.72821	35.33355	574.34540	6.92283	696.29218	-1002.36334	
6147	61.460	-774.93671	-24.72157	-648.26257	797.30304	-19.41397	-641.47742	-692.40210	25.92680	488.71509	724.60645	34.38670	574.59821	7.68544	698.45599	-1000.39954	
6148	61.470	-774.20123	-22.77699	-647.99023	798.17987	-17.89854	-641.10284	-691.15552	24.80655	488.93649	725.67334	33.27632	575.14563	16.58478	621.97937	-1005.22845	
6149	61.480	-773.37262	-21.22046	-647.50830	799.66278	-16.52940	-640.84430	-690.04370	23.99789	489.34747	726.74048	32.33126	575.56128	15.87689	644.04144	-1001.65460	
6150	61.490	-771.77496	-20.10413	-647.35016	800.76587	-15.24292	-640.31519	-688.97681	23.10186	489.69598	727.79144	31.17287	576.10773	11.32342	704.50537	-994.68927	
6151	61.500	-770.66846	-18.51595	-647.10022	801.76978	-13.89048	-640.10718	-687.83160	22.21836	489.98846	728.87311	30.05637	576.55298	12.34590	706.66388	-992.62518	
6152	61.510	-769.53473	-17.29497	-646.86615	803.21399	-12.21454	-639.87622	-686.58563	21.12039	490.40826	730.98895	29.32574	576.64496	13.11126	708.97998	-990.73920	
6153	61.520	-768.53528	-16.03847	-646.41016	803.88324	-10.94804	-639.86725	-685.52643	20.12319	490.64490	732.22119	28.11423	576.97589	14.43033	711.10559	-988.81042	
6154	61.530	-767.19757	-14.43584	-646.11444	805.29346	-9.44678	-639.47375	-684.49988	19.05946	491.14191	732.87201	26.68948	577.05518	15.66545	713.40894	-986.60675	
6155	61.540	-766.03986	-12.94369	-645.89459	806.43915	-7.80408	-638.90790	-683.27399	18.13833	491.71484	734.75256	25.91836	577.76984	25.64885	633.26587	-988.74567	
6156	61.550	-764.97076	-11.56276	-645.68494	807.40393	-6.46439	-638.68121	-682.12286	17.05992	492.03775	735.56744	24.67036	578.13403	17.76314	717.82147	-982.56122	
6157	61.560	-763.98737	-9.87111	-645.17975	808.65900	-4.85998	-638.24139	-681.18103	16.16367	492.28006	736.80762	23.27079	578.60425	18.59650	720.26752	-980.62305	
6158	61.570	-762.99054	-8.32539	-644.78357	809.75165	-3.29762	-638.08716	-679.92731	15.09672	492.80316	736.54218	21.01465	579.01086	20.11759	722.54626	-978.74933	
6159	61.580	-761.82520	-6.61562	-644.61639	810.60699	-1.77669	-637.66888	-678.81708	14.10592	493.13760	738.42706	20.25863	579.58685	21.16768	724.88391	-976.67682	
6160	61.590	-760.67554	-5.11071	-644.29779	811.97247	-0.33138	-637.33203	-677.71252	13.18647	493.51596	740.02167	19.80955	579.79272	22.11968	727.14203	-974.82782	
6161	61.600	-759.66980	-3.39751	-643.86536	813.01105	1.17291	-636.96893	-676.67041	11.87825	493.85928	741.08118	18.31520	580.06134	22.92074	729.27393	-973.04858	
6162	61.610	-758.66858	-1.96355	-643.57465	814.03131	2.85479	-636.74890	-675.66821	10.93828	494.24371	741.57385	16.67107	580.64520	24.16276	731.58557	-971.13080	
6163	61.620	-757.19037	-0.76863	-643.28876	815.37085	4.24381	-636.10516	-674.44916	9.80144	494.60901	742.74725	15.46968	581.02533	25.51721	734.00641	-969.10388	
6164	61.630	-756.22083	0.72980	-642.90332	816.21973	5.84249	-635.86334	-673.29681	8.83488	495.41101	743.87976	14.20556	581.43762	26.49489	736.22614	-967.09692	
6165	61.640	-755.19275	2.43405	-642.50726	817.18475	7.64441	-635.78876	-672.22809	7.68129	495.67230	744.78473	12.81238	581.70050	27.23279	738.52570	-965.19080	
6166	61.650	-754.22168	4.20124	-642.12158	818.29181	8.81751	-635.30249	-671.26331	6.67580	495.82498	745.83081	11.58808	582.02899	28.34764	740.92365	-963.00891	
6167	61.660	-753.28931	5.77828	-641.80609	819.33856	10.44959	-634.83276	-670.23669	5.60531	496.16556	746.88269	10.26003	582.36218	29.65080	743.38904	-960.76099	
6168	61.670	-752.08948	7.09193	-641.48785	820.45416	12.20528	-634.46454	-669.29089	4.41457	496.63834	748.25427	9.49548	582.64905	30.70987	745.88733	-958.46667	
6169	61.680	-751.07996	8.48655	-640.84393	821.47772	13.73253	-634.09552	-668.16138	3.40805	496.85168	749.28442	8.01758	583.19507	31.56762	748.26111	-956.19824	
6170	61.690	-750.16638	10.51719	-640.55841	822.39606	15.28090	-633.59338	-667.10889	2.13718	497.34460	749.94342	6.68623	583.61572	32.39447	750.32159	-954.06958	
6171	61.700	-749.32257	12.23928	-640.21283	823.31622	16.98483	-633.40814	-666.28223	1.36541	497.59045	751.27222	5.36771	584.14246	33.28881	752.66766	-952.00818	
6172	61.710	-748.38531	13.66730	-639.91516	824.38641	18.45156	-632.97791	-665.31720	0.10485	497.92542	752.15607	4.24448	584.45074	34.40407	754.89990	-949.72351	
6173	61.720	-747.19995	15.02749	-639.45709	825.19403	19.92467	-632.53864	-664.36981	-1.01942	498.25909	753.17548	2.86052	584.72949	35.50222	757.21216	-947.45178	
6174	61.730	-746.26331	16.51492	-638.90070	825.89221	21.66257	-632.31512	-663.16846	-2.27109	499.04944	754.26495	1.64299	585.07782	36.45947	759.62878	-945.21008	
6175	61.740	-745.47498	18.47234	-638.70886	827.13025	23.26227	-631.66058	-662.45715	-3.09212	499.18408	754.78198	0.13249	585.11578	46.02304	679.42725	-949.52289	
6176	61.750	-744.61768	20.06398	-638.26544	828.31750	24.54092	-631.08832	-661.44464	-4.20294	499.37140	756.15936	-0.80064	585.75818	38.04257	764.24896	-941.23450	
6177	61.760	-743.65881	21.40063	-637.78479	828.88879	26.46346	-630.93018	-660.49139	-5.31472	499.83606	757.11121	-2.11631	586.23547	38.94326	766.46698	-938.98688	
6178	61.770	-742.91467	22.84533	-637.36456	829.87152	27.70208	-630.71387	-659.66748	-6.31052	500.13791	757.60468	-3.42153	586.62085	39.96825	768.56989	-936.98145	
6179	61.780	-741.92596	24.41380	-637.02167	830.66449	29.13370	-630.15167	-658.95453	-7.46544	500.34802	758.73596	-4.62736	586.98273	40.90485	770.80090	-934.85675	
6180	61.790	-741.06299	26.14260	-636.65582	831.56390	30.98415	-629.70074	-657.94781	-8.53972	500.75446	759.68921	-5.60205	587.38367	41.53037	773.12494	-932.93170	
6181	61.800	-740.35156	27.76931	-636.21094	832.30969	32.12436	-629.18457	-657.22583	-9.43522	500.95627	760.09790	-7.18593	587.30927	42.31480	775.15997	-930.77087	
6182	61.810	-739.41357	28.82833	-635.71039	833.13373	33.85634	-628.95184	-656.28564	-10.48292	501.34647	761.26263	-8.13368	588.04858	43.18609	777.28186	-928.66998	
6183	61.820	-738.87292	30.63406	-635.48010	833.79608	35.27429	-628.64392	-655.54376	-11.54793	501.91397	762.12097	-9.37726	588.29193	43.92404	779.45685	-926.68195	
6184	61.830	-737.98102	31.95480	-635.07941	834.49542	36.59311	-628.20227	-654.90619	-12.64700	501.94110	762.81873	-10.50036	588.72754	44.48461	781.45355	-924.70062	
6185	61.840	-737.32581	33.42223	-634.64447	835.40039	38.17955	-627.61768	-654.13849	-13.66094	502.57327	763.69147	-11.74421	589.08582	45.20162	783.68243	-922.54266	
